<svg width="164" height="164" viewBox="0 0 164 164" fill="none" xmlns="http://www.w3.org/2000/svg">
<path d="M82 164C127.287 164 164 127.287 164 82C164 36.7127 127.287 0 82 0C36.7127 0 0 36.7127 0 82C0 127.287 36.7127 164 82 164Z" fill="#ADFF00"/>
<path fill-rule="evenodd" clip-rule="evenodd" d="M32.8126 42.2182C32.8011 42.2489 32.7967 60.1738 32.8027 82.0514L32.8139 121.829H50.0203C63.9597 121.829 67.3308 121.818 67.7766 121.771C68.0791 121.739 68.6102 121.665 68.9568 121.607C69.3034 121.549 69.8676 121.429 70.2109 121.341C70.5542 121.253 71.1159 121.085 71.4592 120.968C71.8025 120.852 72.3768 120.627 72.7354 120.469C73.094 120.312 73.6248 120.053 73.9154 119.894C74.2056 119.735 74.7504 119.401 75.1254 119.152C75.5007 118.902 76.0252 118.523 76.2914 118.31C76.5577 118.096 77.0584 117.646 77.4042 117.31C77.7502 116.974 78.2452 116.444 78.5046 116.133C78.7637 115.821 79.1311 115.346 79.3208 115.076C79.5105 114.806 79.7953 114.37 79.9538 114.107C80.1126 113.845 80.3862 113.341 80.562 112.988C80.7378 112.634 80.9911 112.069 81.1248 111.73C81.2587 111.392 81.4487 110.848 81.5474 110.523C81.6458 110.197 81.7753 109.714 81.8349 109.448C81.8948 109.182 81.9831 108.718 82.0314 108.416C82.0801 108.114 82.143 107.68 82.1714 107.45C82.2083 107.153 82.2285 105.074 82.2419 100.228C82.2545 95.6251 82.2452 93.1927 82.2129 92.7119C82.1867 92.3211 82.1244 91.7604 82.0744 91.4663C82.0243 91.172 81.9166 90.689 81.8352 90.3927C81.754 90.0964 81.6149 89.6593 81.5266 89.4213C81.4383 89.1832 81.2295 88.7087 81.0625 88.367C80.8955 88.0253 80.5727 87.4675 80.3447 87.1272C80.117 86.7869 79.8456 86.4045 79.7412 86.2774C79.637 86.1506 79.4025 85.8802 79.2199 85.6769C79.0373 85.4732 78.6998 85.1392 78.4699 84.9342C78.24 84.7292 77.8653 84.4231 77.6376 84.2539C77.4096 84.0847 77.0136 83.8179 76.7575 83.6608C76.5011 83.5039 76.0539 83.2622 75.7636 83.1242C75.4731 82.9859 75.0393 82.8 74.7996 82.7112C74.5596 82.6224 74.1042 82.4805 73.7874 82.3963C73.4704 82.3119 73.1107 82.2083 73.1107 82.2083C73.1107 82.2083 73.1014 82.0902 73.1107 81.7403L73.1232 81.2737L73.4715 81.1472C73.6631 81.0775 74.0143 80.9228 74.2524 80.8028C74.4904 80.6833 74.8387 80.483 75.0262 80.3578C75.214 80.2329 75.4985 80.0243 75.6587 79.8945C75.8186 79.7647 76.1061 79.4954 76.2972 79.2962C76.4885 79.0972 76.7389 78.8118 76.8537 78.6626C76.9685 78.5131 77.1647 78.2266 77.2899 78.026C77.4148 77.8251 77.6013 77.4821 77.7038 77.2634C77.8065 77.0447 77.9601 76.658 78.0454 76.404C78.1304 76.1498 78.246 75.7163 78.3021 75.4405L78.4038 74.939V65.8506C78.4038 57.3 78.3991 56.7273 78.3237 56.1697C78.2794 55.8436 78.204 55.3694 78.1556 55.116C78.1075 54.8624 78.0184 54.4573 77.9577 54.2159C77.897 53.9743 77.7587 53.505 77.6499 53.1724C77.5414 52.84 77.3531 52.3269 77.2317 52.0323C77.1103 51.7379 76.8747 51.2295 76.708 50.9026C76.5413 50.5757 76.2739 50.0911 76.1135 49.8254C75.953 49.5597 75.6814 49.1459 75.5092 48.9056C75.3372 48.6651 75.0418 48.2764 74.8526 48.0416C74.6632 47.8068 74.2576 47.355 73.9509 47.0374C73.6442 46.7198 73.1856 46.2811 72.9319 46.0624C72.678 45.8437 72.2417 45.4952 71.9624 45.2881C71.6828 45.0806 71.1861 44.7455 70.8584 44.5429C70.5309 44.3407 69.9064 44.0006 69.4707 43.7877C69.035 43.5748 68.4071 43.2998 68.075 43.1768C67.7432 43.0536 67.1987 42.8751 66.865 42.7797C66.5312 42.6846 65.9614 42.5471 65.5981 42.4746C65.2351 42.4019 64.7005 42.3082 64.4102 42.2664C63.9182 42.1953 62.8183 42.189 48.3579 42.1764C35.8619 42.1652 32.8298 42.1734 32.8126 42.2182ZM87.9513 42.2188C87.9398 42.2491 87.9354 44.8029 87.9417 47.8937L87.9529 53.5135H93.6517H99.3504V47.8497V42.186L93.6615 42.1748C89.1335 42.166 87.9682 42.1751 87.9513 42.2188ZM110.79 42.2188C110.779 42.2491 110.765 47.3613 110.759 53.5793L110.748 64.8847L99.3504 64.9065L87.9529 64.9287V93.3789V121.829H93.6517H99.3504L99.3725 99.0863L99.3944 76.3439H105.049H110.704L110.726 99.0863L110.748 121.829H122.145H133.543V116.143V110.458L127.866 110.436L122.189 110.414V93.3789V76.3439L127.866 76.3218L133.543 76.2999V70.6143V64.9287L127.866 64.9065L122.189 64.8847L122.167 53.5353L122.145 42.186L116.478 42.1748C111.968 42.166 110.807 42.1751 110.79 42.2188ZM62.4069 53.6398C62.5879 53.6832 62.8948 53.7685 63.0892 53.8292C63.2832 53.8901 63.6148 54.0249 63.8261 54.1293C64.0371 54.2334 64.3528 54.4141 64.5274 54.5308C64.7018 54.6473 65.0126 54.9009 65.2182 55.0939C65.4234 55.2871 65.7074 55.6009 65.8493 55.7912C65.9909 55.9814 66.1855 56.2711 66.2817 56.4354C66.3776 56.5994 66.5157 56.8812 66.5878 57.0616C66.6603 57.242 66.768 57.5697 66.8267 57.7895C66.8858 58.0095 66.9566 58.4116 66.9842 58.6833C67.0197 59.0351 67.0293 60.92 67.017 65.2359C67.0014 70.7499 66.9932 71.3282 66.9243 71.6672C66.8828 71.8719 66.7893 72.2158 66.7171 72.4311C66.6447 72.6468 66.4933 73.001 66.3806 73.2186C66.268 73.4362 66.0581 73.774 65.9138 73.9692C65.7697 74.1643 65.4814 74.4929 65.2731 74.699C65.0645 74.9051 64.7237 75.1866 64.5151 75.3246C64.3069 75.4627 63.9701 75.6532 63.767 75.748C63.5639 75.8429 63.2395 75.9722 63.046 76.0353C62.8522 76.0982 62.5157 76.1837 62.2979 76.225C61.9324 76.2942 61.2144 76.2999 53.0567 76.2999H44.2114L44.2002 64.9724C44.1939 58.7423 44.1985 53.6201 44.2103 53.5892C44.2272 53.5441 45.9594 53.5359 53.1546 53.5471C61.5689 53.5599 62.0964 53.5654 62.4069 53.6398ZM66.2582 87.7949C66.4277 87.8365 66.7248 87.922 66.9183 87.9849C67.1121 88.048 67.4661 88.1989 67.7049 88.3203C67.9441 88.4416 68.2989 88.6589 68.4935 88.803C68.6884 88.947 68.988 89.2059 69.1596 89.3778C69.3313 89.55 69.5745 89.8283 69.7 89.9964C69.8255 90.1645 70.0275 90.4916 70.1488 90.7231C70.2702 90.9547 70.4383 91.3504 70.5225 91.6027C70.6067 91.855 70.7064 92.2716 70.7441 92.5282C70.8037 92.9339 70.8127 93.7941 70.8127 99.0921C70.8125 104.181 70.8018 105.258 70.7488 105.606C70.7141 105.835 70.6359 106.193 70.5755 106.4C70.5151 106.607 70.3945 106.932 70.3074 107.123C70.2202 107.313 70.0231 107.658 69.8689 107.889C69.715 108.12 69.4554 108.453 69.2919 108.629C69.1285 108.805 68.8346 109.074 68.6387 109.226C68.4429 109.378 68.107 109.603 67.8924 109.725C67.6776 109.848 67.3313 110.01 67.1222 110.086C66.9134 110.161 66.5742 110.266 66.3683 110.318L65.9941 110.414H55.1029H44.2114L44.2002 99.1082C44.1939 92.8904 44.1986 87.778 44.21 87.7471C44.2273 87.7025 46.3535 87.6943 55.0909 87.7053C65.1914 87.7181 65.9717 87.7244 66.2582 87.7949Z" fill="black"/>
</svg>
