<?xml version="1.0" encoding="UTF-8"?>
<svg id="Layer_1" data-name="Layer 1" xmlns="http://www.w3.org/2000/svg" xmlns:xlink="http://www.w3.org/1999/xlink" viewBox="0 0 1164 599.0769">
  <a xlink:href="100">
    <rect id="fullLogo" x="316.1538" y="186" width="33.2308" height="33.2308"/>
  </a>
  <path id="fullLogo-2" data-name="fullLogo" d="M271.8461,298.392v-4.5812c6.7842-6.0831,11.0607-14.9048,11.0607-24.7339v-40.1539c0-23.7057-19.2173-42.923-42.923-42.923h-89.9838v232.6154h105.2308c24.4705,0,44.3077-19.8372,44.3077-44.3077v-38.7692c0-17.5605-11.6804-32.3798-27.6923-37.1464Zm-88.6154-79.1613h49.8461c9.1765,0,16.6154,7.439,16.6154,16.6154v33.2308c0,9.1765-7.439,16.6154-16.6154,16.6154h-49.8461v-66.4615Zm66.4615,83.0624v.0156l-.0291-.0011,.0291-.0145Zm16.6154,66.476c0,9.1764-7.439,16.6154-16.6154,16.6154h-66.4615v-66.4615h66.4615c9.1764,0,16.6154,7.439,16.6154,16.6154v33.2308Z" style="fill-rule: evenodd;"/>
  <a xlink:href="100">
    <polygon id="fullLogo-3" data-name="fullLogo" points="449.0769 285.6923 449.0769 252.4615 415.8461 252.4615 415.8461 186 382.6154 186 382.6154 252.4615 316.1538 252.4615 316.1538 418.6154 349.3846 418.6154 349.3846 285.6923 382.6154 285.6923 382.6154 418.6154 449.0769 418.6154 449.0769 385.3846 415.8461 385.3846 415.8461 285.6923 449.0769 285.6923" style="fill-rule: evenodd;"/>
  </a>
  <a xlink:href="21.0149019607843">
    <rect id="fullLogo-4" data-name="fullLogo" x="482.3077" y="150" width="531.6923" height="299.0769" rx="149.5383" ry="149.5383" style="fill: #adff00;"/>
  </a>
  <path id="fullLogo-5" data-name="fullLogo" d="M653.2055,245.0001c-12.9481-11.9213-31.64-17.9659-55.5566-17.9659h-47.7038c-.3888,0-.7041,.3158-.7041,.7054v5.8892c0,.3896,.3153,.7054,.7041,.7054,8.88,0,11.7304,2.2501,11.7304,9.2601v112.5679c0,7.0103-2.8504,9.2605-11.7304,9.2605-.3888,0-.7041,.3158-.7041,.7054v5.8888c0,.3895,.3153,.7054,.7041,.7054h47.7038c23.819,0,42.513-6.237,55.5626-18.5378,13.4051-12.6359,20.2021-31.0976,20.2021-54.8724,0-23.6929-6.799-41.9661-20.2081-54.3118Zm-4.7134,54.3118c0,20.8388-4.348,35.666-13.2925,45.3289-8.7119,9.4116-21.8823,13.9867-40.2638,13.9867h-9.2437v-117.4988h9.2437c18.4838,0,31.6566,4.3924,40.2709,13.4281,8.9397,9.377,13.2853,24.0165,13.2853,44.7551Z"/>
  <path id="fullLogo-6" data-name="fullLogo" d="M817.3442,365.4225c-9.1552,0-14.8923-1.4358-17.125-8.7746l-39.071-129.1013c-.0918-.3033-.3867-.5125-.7225-.5125h-52.095c-.4148,0-.7511,.3158-.7511,.7054v5.8892c0,.3896,.3363,.7054,.7511,.7054,8.3842,0,13.9434,.4517,15.7493,2.7,.9403,1.1707,.9944,2.9778,.1703,5.687l-34.7302,113.9265c-2.2328,7.3392-7.9699,8.7749-17.1252,8.7749-.1992,0-.3902,.0743-.5311,.2066s-.22,.3117-.22,.4988v5.8888c0,.3895,.3363,.7054,.7511,.7054h51.8538c.4148,0,.7511-.3158,.7511-.7054v-5.8888c0-.3895-.3363-.7054-.7511-.7054-8.3841,0-13.9431-.4517-15.749-2.7002-.9403-1.1708-.9943-2.9778-.1699-5.6867l7.8047-25.9887h50.7166l7.8047,25.9863c.8249,2.7114,.7708,4.5184-.1696,5.6892-1.8059,2.2485-7.3648,2.7001-15.7486,2.7001-.4148,0-.7511,.3158-.7511,.7054v5.8888c0,.3895,.3363,.7054,.7511,.7054h58.6066c.4148,0,.7511-.3158,.7511-.7054v-5.8888c0-.1871-.0791-.3665-.22-.4988-.1408-.1323-.3319-.2066-.5311-.2066Zm-54.7766-48.4699h-42.1458l21.1877-69.4263,20.9581,69.4263Z"/>
  <path id="fullLogo-7" data-name="fullLogo" d="M931.7406,245.8629c-11.379-13.7996-28.2774-21.0936-48.8683-21.0936s-37.4895,7.2941-48.8686,21.0936c-10.644,12.908-16.2701,31.0771-16.2701,52.5431,0,21.6457,5.6229,40.2024,16.2609,53.6641,11.4964,14.548,28.3981,22.2376,48.8779,22.2376s37.3813-7.6897,48.8775-22.2376c10.6377-13.4616,16.2606-32.0184,16.2606-53.6641,0-21.466-5.626-39.6352-16.2698-52.5431Zm-19.5812,98.8921c-6.8924,10.261-17.0197,15.6846-29.2872,15.6846s-22.3951-5.4237-29.2874-15.6846c-7.2525-10.7972-10.9298-26.3913-10.9298-46.349,0-19.785,3.6738-34.993,10.9195-45.2016,6.8605-9.666,16.7177-14.5671,29.2977-14.5671s22.4368,4.9011,29.2975,14.5671c7.2458,10.2088,10.9198,25.4168,10.9198,45.2016,0,19.9576-3.6774,35.5517-10.9301,46.349Z"/>
</svg>